<?xml version="1.0" encoding="iso-8859-1"?>
<!-- Generator: Adobe Illustrator 17.1.0, SVG Export Plug-In . SVG Version: 6.00 Build 0)  -->
<!DOCTYPE svg PUBLIC "-//W3C//DTD SVG 1.1//EN" "http://www.w3.org/Graphics/SVG/1.1/DTD/svg11.dtd">
<svg version="1.1" id="Layer_1" xmlns="http://www.w3.org/2000/svg" xmlns:xlink="http://www.w3.org/1999/xlink" x="0px" y="0px"
	 width="16px" height="16px" viewBox="0 0 16 16" style="enable-background:new 0 0 16 16;" xml:space="preserve">
<g>
	<g>
		<path style="fill:#999999;" d="M8,0C3.582,0,0,3.581,0,8c0,4.418,3.582,8,8,8c4.418,0,8-3.582,8-8C16,3.581,12.418,0,8,0z
			 M8,13.999c-3.034,0-6-2.962-6-6c0-2.993,2.991-6,6-6c3.079,0,6,2.989,6,6C14,11.049,11.117,13.999,8,13.999z M8,12l4-6.001H4
			L8,12z"/>
	</g>
</g>
</svg>
