<?xml version="1.0" encoding="utf-8"?>
<!-- Generator: Adobe Illustrator 16.0.0, SVG Export Plug-In . SVG Version: 6.00 Build 0)  -->
<!DOCTYPE svg PUBLIC "-//W3C//DTD SVG 1.1//EN" "http://www.w3.org/Graphics/SVG/1.1/DTD/svg11.dtd">
<svg version="1.1" id="Layer_1" xmlns="http://www.w3.org/2000/svg" xmlns:xlink="http://www.w3.org/1999/xlink" x="0px" y="0px"
	 width="156px" height="31px" viewBox="0 0 156 31" enable-background="new 0 0 156 31" xml:space="preserve">
<polygon fill="#115F67" points="4.173,19.075 21.896,25.52 24.573,18.172 19.24,5.267 6.85,11.728 "/>
<g>
	<path fill="#A1ABAA" d="M26.103,21.876l-1.664,4.568l1.486,0.54c0.569-0.516,1.103-1.075,1.595-1.679L26.103,21.876z"/>
	<path fill="#A1ABAA" d="M29.313,22.562c0.289-0.564,0.549-1.148,0.771-1.76c1.25-3.428,1.208-7.006,0.131-10.215l-2.741,7.525
		L29.313,22.562z"/>
	<path fill="#A1ABAA" d="M25.944,14.408l2.638-7.241c-1.119-1.754-2.593-3.293-4.371-4.495l-2.563,1.338L25.944,14.408z"/>
	<path fill="#A1ABAA" d="M17.101,0.088c-2.134-0.222-4.254,0.01-6.24,0.635L8.223,7.964l9.98-5.206L17.101,0.088z"/>
	<path fill="#A1ABAA" d="M20.971,28.061L3.249,21.616l-0.81,2.222c1.77,2.775,4.432,5.012,7.766,6.225
		c3.335,1.211,6.815,1.21,9.956,0.221L20.971,28.061z"/>
	<path fill="#A1ABAA" d="M0.001,15.301c-0.01,0.776,0.038,1.548,0.144,2.31l1.486,0.541l1.665-4.569L0.001,15.301z"/>
	<path fill="#A1ABAA" d="M4.667,9.818l2.741-7.523C4.52,4.06,2.184,6.775,0.936,10.204c-0.223,0.61-0.399,1.226-0.541,1.843
		L4.667,9.818z"/>
</g>
<g>
	<g>
		<path fill="#717473" d="M42.171,6.28h2.733v1.73h0.046c0.592-1.252,1.798-2.003,3.235-2.003c0.341,0,0.66,0.068,0.979,0.16v2.639
			c-0.456-0.113-0.888-0.205-1.32-0.205c-2.575,0-2.939,2.163-2.939,2.754v5.848h-2.733V6.28z"/>
		<path fill="#717473" d="M52.309,12.698c0.182,1.615,1.412,2.594,2.939,2.594c1.366,0,2.254-0.637,2.937-1.479l1.96,1.479
			c-1.276,1.57-2.894,2.184-4.624,2.184c-3.303,0-5.946-2.297-5.946-5.733c0-3.437,2.643-5.735,5.946-5.735
			c3.052,0,5.125,2.139,5.125,5.939v0.751H52.309z M57.912,10.649c-0.023-1.593-1.07-2.592-2.779-2.592
			c-1.618,0-2.62,1.023-2.825,2.592H57.912z"/>
		<path fill="#717473" d="M69.12,15.701H69.05c-0.774,1.229-2.049,1.774-3.507,1.774c-2.027,0-3.986-1.114-3.986-3.274
			c0-3.552,4.146-3.803,6.879-3.803h0.684v-0.294c0-1.343-1.048-2.047-2.506-2.047c-1.138,0-2.187,0.455-2.916,1.138L62.263,7.76
			c1.207-1.229,2.916-1.752,4.647-1.752c4.669,0,4.669,3.369,4.669,4.916v6.28h-2.46V15.701z M68.959,12.311h-0.57
			c-1.503,0-4.099,0.114-4.099,1.684c0,1.001,1.024,1.433,1.912,1.433c1.869,0,2.757-0.977,2.757-2.503V12.311z"/>
		<path fill="#717473" d="M73.584,0h2.734v17.203h-2.734V0z"/>
		<path fill="#717473" d="M77.389,8.602V6.28h2.255V3.117h2.732V6.28h3.008v2.322h-3.008v4.778c0,1.094,0.32,1.776,1.527,1.776
			c0.479,0,1.14-0.091,1.48-0.341v2.298c-0.569,0.273-1.526,0.363-2.164,0.363c-2.894,0-3.576-1.297-3.576-3.868V8.602H77.389z"/>
		<path fill="#717473" d="M92.127,6.007c3.301,0,5.945,2.299,5.945,5.735c0,3.436-2.645,5.733-5.945,5.733
			c-3.303,0-5.946-2.297-5.946-5.733C86.181,8.306,88.824,6.007,92.127,6.007z M92.127,15.019c2.004,0,3.211-1.569,3.211-3.276
			c0-1.707-1.207-3.278-3.211-3.278c-2.005,0-3.212,1.571-3.212,3.278C88.915,13.449,90.122,15.019,92.127,15.019z"/>
		<path fill="#717473" d="M99.483,6.28h2.734v1.73h0.046c0.593-1.252,1.799-2.003,3.234-2.003c0.342,0,0.661,0.068,0.98,0.16v2.639
			c-0.456-0.113-0.889-0.205-1.323-0.205c-2.572,0-2.938,2.163-2.938,2.754v5.848h-2.734V6.28z"/>
		<path fill="#717473" d="M106.41,13.835c0.979,0,1.821,0.752,1.821,1.731c0,0.977-0.819,1.772-1.821,1.772
			c-0.957,0-1.822-0.751-1.822-1.728C104.588,14.633,105.407,13.835,106.41,13.835z"/>
		<path fill="#717473" d="M117.248,9.558c-0.638-0.66-1.345-1.093-2.073-1.093c-2.005,0-3.213,1.571-3.213,3.278
			c0,1.707,1.208,3.276,3.213,3.276c0.843,0,1.617-0.363,2.119-1.023l1.822,1.957c-1.118,1.114-2.984,1.523-3.941,1.523
			c-3.304,0-5.945-2.297-5.945-5.733c0-3.437,2.642-5.735,5.945-5.735c1.389,0,2.915,0.5,3.964,1.661L117.248,9.558z"/>
		<path fill="#717473" d="M125.47,6.007c3.304,0,5.946,2.299,5.946,5.735c0,3.436-2.643,5.733-5.946,5.733
			c-3.301,0-5.944-2.297-5.944-5.733C119.525,8.306,122.169,6.007,125.47,6.007z M125.47,15.019c2.006,0,3.212-1.569,3.212-3.276
			c0-1.707-1.206-3.278-3.212-3.278c-2.003,0-3.211,1.571-3.211,3.278C122.259,13.449,123.467,15.019,125.47,15.019z"/>
		<path fill="#717473" d="M132.991,6.28h2.596v1.707h0.046c0.479-1.024,1.526-1.979,3.349-1.979c1.686,0,2.848,0.661,3.416,2.027
			c0.798-1.389,1.96-2.027,3.601-2.027c2.915,0,3.939,2.071,3.939,4.688v6.508h-2.732v-6.189c0-1.364-0.41-2.549-2.027-2.549
			c-1.709,0-2.346,1.412-2.346,2.822v5.917h-2.734v-6.508c0-1.343-0.547-2.23-1.867-2.23c-1.801,0-2.507,1.32-2.507,2.777v5.961
			h-2.732V6.28z"/>
	</g>
	<g>
		<path fill="#000" d="M42.214,24.404h0.628l1.065,3.677h0.02l1.227-3.677h0.542l1.303,3.677h0.02l1.036-3.677h0.571l-1.293,4.39
			h-0.59l-1.312-3.592h-0.02l-1.227,3.592h-0.59L42.214,24.404z"/>
		<path fill="#000" d="M49.538,21.611h0.572v3.562h0.019c0.229-0.484,0.789-0.882,1.503-0.882c1.369,0,1.674,0.93,1.674,1.889
			v2.614h-0.572v-2.586c0-0.711-0.199-1.404-1.103-1.404c-0.847,0-1.522,0.589-1.522,1.795v2.195h-0.572V21.611z"/>
		<path fill="#000" d="M58.55,27.968c-0.448,0.665-1.124,0.939-1.902,0.939c-1.342,0-2.227-0.958-2.227-2.317
			c0-1.312,0.913-2.299,2.198-2.299c1.35,0,2.062,1.035,2.062,2.053v0.398h-3.69c0,0.474,0.333,1.653,1.665,1.653
			c0.58,0,1.189-0.305,1.474-0.78L58.55,27.968z M58.112,26.229c0-0.778-0.676-1.425-1.521-1.425c-1.247,0-1.598,1.197-1.598,1.425
			H58.112z"/>
		<path fill="#000" d="M59.825,25.639c0-0.322-0.048-1.006-0.048-1.234h0.57c0.009,0.323,0.019,0.685,0.039,0.769
			c0.285-0.514,0.742-0.882,1.398-0.882c0.113,0,0.219,0.019,0.333,0.047l-0.067,0.56c-0.085-0.028-0.162-0.036-0.219-0.036
			c-0.989,0-1.437,0.683-1.437,1.538v2.395h-0.569V25.639z"/>
		<path fill="#000" d="M66.631,27.968c-0.447,0.665-1.122,0.939-1.901,0.939c-1.341,0-2.225-0.958-2.225-2.317
			c0-1.312,0.913-2.299,2.196-2.299c1.351,0,2.064,1.035,2.064,2.053v0.398h-3.69c0,0.474,0.333,1.653,1.665,1.653
			c0.58,0,1.189-0.305,1.474-0.78L66.631,27.968z M66.193,26.229c0-0.778-0.674-1.425-1.521-1.425c-1.245,0-1.597,1.197-1.597,1.425
			H66.193z"/>
		<path fill="#000" d="M70.438,21.611h0.57v3.562h0.02c0.227-0.484,0.79-0.882,1.502-0.882c1.37,0,1.674,0.93,1.674,1.889v2.614
			h-0.571v-2.586c0-0.711-0.199-1.404-1.103-1.404c-0.846,0-1.521,0.589-1.521,1.795v2.195h-0.57V21.611z"/>
		<path fill="#000" d="M77.63,24.291c1.352,0,2.312,0.968,2.312,2.308s-0.96,2.309-2.312,2.309c-1.349,0-2.309-0.969-2.309-2.309
			S76.281,24.291,77.63,24.291z M77.63,28.396c1.075,0,1.741-0.807,1.741-1.797c0-0.987-0.666-1.795-1.741-1.795
			s-1.739,0.808-1.739,1.795C75.891,27.589,76.556,28.396,77.63,28.396z"/>
		<path fill="#000" d="M81.067,25.639c0-0.322-0.048-1.006-0.048-1.234h0.569c0.009,0.323,0.019,0.685,0.037,0.769h0.029
			c0.229-0.484,0.79-0.882,1.503-0.882c0.581,0,1.114,0.284,1.321,0.949c0.276-0.655,0.887-0.949,1.495-0.949
			c1.369,0,1.674,0.93,1.674,1.889v2.614h-0.571v-2.586c0-0.711-0.199-1.404-1.103-1.404c-1.056,0-1.333,0.894-1.333,1.52v2.471
			h-0.569v-2.641c0-0.809-0.295-1.35-0.914-1.35c-0.846,0-1.521,0.589-1.521,1.795v2.195h-0.569V25.639z"/>
		<path fill="#000" d="M92.919,27.968c-0.449,0.665-1.123,0.939-1.902,0.939c-1.341,0-2.227-0.958-2.227-2.317
			c0-1.312,0.913-2.299,2.198-2.299c1.35,0,2.063,1.035,2.063,2.053v0.398H89.36c0,0.474,0.335,1.653,1.666,1.653
			c0.579,0,1.188-0.305,1.473-0.78L92.919,27.968z M92.48,26.229c0-0.778-0.674-1.425-1.521-1.425c-1.245,0-1.599,1.197-1.599,1.425
			H92.48z"/>
		<path fill="#000" d="M96.724,21.611h0.571v3.562h0.019c0.229-0.484,0.79-0.882,1.503-0.882c1.369,0,1.674,0.93,1.674,1.889
			v2.614h-0.57v-2.586c0-0.711-0.199-1.404-1.104-1.404c-0.847,0-1.521,0.589-1.521,1.795v2.195h-0.571V21.611z"/>
		<path fill="#000" d="M105.207,26.951c0,0.855,0.02,1.339,0.085,1.843h-0.532c-0.037-0.219-0.057-0.467-0.057-0.713h-0.02
			c-0.322,0.56-0.799,0.826-1.541,0.826c-0.75,0-1.549-0.369-1.549-1.301c0-1.34,1.568-1.474,2.434-1.474h0.667v-0.267
			c0-0.759-0.532-1.062-1.237-1.062c-0.513,0-0.95,0.161-1.341,0.494l-0.333-0.39c0.418-0.398,1.104-0.617,1.674-0.617
			c1.066,0,1.75,0.474,1.75,1.585V26.951z M104.065,26.59c-0.952,0-1.901,0.237-1.901,0.988c0,0.541,0.523,0.817,0.998,0.817
			c1.218,0,1.532-0.78,1.532-1.512V26.59H104.065z"/>
		<path fill="#000" d="M106.522,24.404h0.568v0.769h0.021c0.353-0.607,1.103-0.882,1.76-0.882c1.35,0,2.31,0.968,2.31,2.308
			s-0.96,2.309-2.31,2.309c-0.657,0-1.407-0.274-1.76-0.884h-0.021v2.938h-0.568V24.404z M108.871,28.396
			c1.073,0,1.739-0.807,1.739-1.797c0-0.987-0.666-1.795-1.739-1.795c-1.037,0-1.836,0.808-1.836,1.795
			C107.035,27.589,107.834,28.396,108.871,28.396z"/>
		<path fill="#000" d="M112.271,24.404h0.569v0.769h0.02c0.353-0.607,1.104-0.882,1.761-0.882c1.35,0,2.31,0.968,2.31,2.308
			s-0.96,2.309-2.31,2.309c-0.657,0-1.408-0.274-1.761-0.884h-0.02v2.938h-0.569V24.404z M114.621,28.396
			c1.074,0,1.739-0.807,1.739-1.797c0-0.987-0.665-1.795-1.739-1.795c-1.036,0-1.837,0.808-1.837,1.795
			C112.784,27.589,113.585,28.396,114.621,28.396z"/>
		<path fill="#000" d="M121.959,27.968c-0.447,0.665-1.122,0.939-1.901,0.939c-1.342,0-2.227-0.958-2.227-2.317
			c0-1.312,0.913-2.299,2.198-2.299c1.35,0,2.063,1.035,2.063,2.053v0.398h-3.69c0,0.474,0.334,1.653,1.665,1.653
			c0.58,0,1.188-0.305,1.473-0.78L121.959,27.968z M121.521,26.229c0-0.778-0.675-1.425-1.521-1.425
			c-1.246,0-1.598,1.197-1.598,1.425H121.521z"/>
		<path fill="#000" d="M123.234,25.639c0-0.322-0.048-1.006-0.048-1.234h0.57c0.009,0.323,0.019,0.685,0.038,0.769h0.028
			c0.228-0.484,0.79-0.882,1.503-0.882c1.369,0,1.675,0.93,1.675,1.889v2.614h-0.571v-2.586c0-0.711-0.2-1.404-1.104-1.404
			c-0.846,0-1.521,0.589-1.521,1.795v2.195h-0.57V25.639z"/>
		<path fill="#000" d="M128.493,27.673c0.239,0.466,0.762,0.723,1.274,0.723c0.496,0,1.009-0.305,1.009-0.807
			c0-1.208-2.606-0.362-2.606-2.036c0-0.854,0.781-1.262,1.504-1.262c0.713,0,1.266,0.267,1.55,0.827l-0.513,0.303
			c-0.22-0.399-0.524-0.617-1.037-0.617c-0.409,0-0.932,0.246-0.932,0.702c0,1.188,2.605,0.267,2.605,2.044
			c0,0.902-0.752,1.357-1.588,1.357c-0.751,0-1.428-0.284-1.77-0.894L128.493,27.673z"/>
	</g>
	<g>
		<path fill="#000" d="M153.759,6.284c1.235,0,2.241,1.005,2.241,2.239s-1.006,2.237-2.241,2.237
			c-1.233,0-2.239-1.004-2.239-2.237S152.525,6.284,153.759,6.284z M153.759,10.436c1.06,0,1.916-0.855,1.916-1.913
			c0-1.059-0.856-1.915-1.916-1.915s-1.916,0.856-1.916,1.915C151.843,9.581,152.699,10.436,153.759,10.436z M153.271,9.805h-0.325
			V7.223h0.992c0.587,0,0.814,0.252,0.814,0.716c0,0.475-0.301,0.674-0.651,0.733l0.771,1.133h-0.367l-0.771-1.133h-0.464V9.805z
			 M153.271,8.383h0.415c0.354,0,0.742-0.017,0.742-0.444c0-0.332-0.303-0.427-0.579-0.427h-0.578V8.383z"/>
	</g>
</g>
</svg>
