<svg xmlns="http://www.w3.org/2000/svg" width="156" height="31" viewBox="0 0 156 31"><path fill="#115F67" d="M4.173 19.075l17.723 6.445 2.677-7.348L19.24 5.267l-12.39 6.46z"/><g fill="#A1ABAA"><path d="M26.103 21.876l-1.664 4.568 1.485.54c.57-.516 1.103-1.075 1.595-1.68l-1.417-3.428zM29.313 22.562c.29-.564.55-1.148.77-1.76 1.25-3.428 1.21-7.006.132-10.215l-2.74 7.525 1.838 4.45zM25.944 14.408l2.638-7.24c-1.12-1.755-2.593-3.294-4.37-4.496L21.647 4.01l4.296 10.398zM17.1.088c-2.133-.222-4.253.01-6.24.635l-2.637 7.24 9.98-5.205L17.1.088zM20.97 28.06L3.25 21.617l-.81 2.222c1.77 2.775 4.43 5.012 7.765 6.225 3.335 1.21 6.815 1.21 9.956.22l.81-2.222zM0 15.3c-.01.777.04 1.55.145 2.31l1.486.542 1.666-4.57L0 15.303zM4.667 9.818l2.74-7.523C4.52 4.06 2.185 6.775.938 10.205c-.224.61-.4 1.225-.542 1.842l4.272-2.23z"/></g><g fill="#717473"><path d="M42.17 6.28h2.734v1.73h.046c.592-1.252 1.798-2.003 3.235-2.003.34 0 .66.068.98.16v2.64c-.457-.114-.89-.206-1.32-.206-2.576 0-2.94 2.164-2.94 2.755v5.848h-2.733V6.28zM52.31 12.698c.18 1.615 1.41 2.594 2.938 2.594 1.366 0 2.254-.637 2.937-1.48l1.96 1.48c-1.276 1.57-2.894 2.184-4.624 2.184-3.302 0-5.945-2.297-5.945-5.733 0-3.437 2.643-5.735 5.946-5.735 3.053 0 5.126 2.14 5.126 5.94v.75H52.31zm5.602-2.05c-.023-1.592-1.07-2.59-2.78-2.59-1.617 0-2.62 1.022-2.824 2.59h5.604zM69.12 15.7h-.07c-.774 1.23-2.05 1.775-3.507 1.775-2.027 0-3.986-1.114-3.986-3.274 0-3.55 4.146-3.802 6.88-3.802h.683v-.294c0-1.343-1.048-2.047-2.506-2.047-1.138 0-2.187.455-2.916 1.138L62.263 7.76c1.207-1.23 2.916-1.752 4.647-1.752 4.67 0 4.67 3.37 4.67 4.916v6.28h-2.46V15.7zm-.16-3.39h-.57c-1.504 0-4.1.115-4.1 1.685 0 1 1.024 1.433 1.912 1.433 1.87 0 2.757-.977 2.757-2.503v-.614zM73.584 0h2.734v17.203h-2.734V0zM77.39 8.602V6.28h2.254V3.117h2.732V6.28h3.008v2.322h-3.008v4.778c0 1.094.32 1.776 1.527 1.776.48 0 1.14-.09 1.48-.34v2.297c-.57.273-1.526.363-2.164.363-2.895 0-3.577-1.297-3.577-3.868V8.602H77.39zM92.127 6.007c3.3 0 5.945 2.3 5.945 5.735 0 3.436-2.645 5.733-5.945 5.733-3.303 0-5.946-2.297-5.946-5.733 0-3.436 2.644-5.735 5.947-5.735zm0 9.012c2.004 0 3.21-1.57 3.21-3.277s-1.206-3.278-3.21-3.278c-2.005 0-3.212 1.57-3.212 3.278 0 1.706 1.207 3.276 3.212 3.276zM99.483 6.28h2.734v1.73h.046c.593-1.252 1.8-2.003 3.234-2.003.342 0 .66.068.98.16v2.64c-.456-.114-.89-.206-1.323-.206-2.572 0-2.938 2.164-2.938 2.755v5.848h-2.734V6.28zM106.41 13.835c.98 0 1.82.752 1.82 1.73s-.818 1.773-1.82 1.773c-.957 0-1.822-.75-1.822-1.728 0-.977.82-1.775 1.822-1.775zM117.248 9.558c-.638-.66-1.345-1.093-2.073-1.093-2.005 0-3.213 1.57-3.213 3.278 0 1.707 1.208 3.276 3.213 3.276.843 0 1.617-.364 2.12-1.024l1.82 1.957c-1.117 1.114-2.983 1.523-3.94 1.523-3.304 0-5.945-2.297-5.945-5.733 0-3.437 2.642-5.735 5.945-5.735 1.39 0 2.915.5 3.964 1.66l-1.892 1.89zM125.47 6.007c3.304 0 5.946 2.3 5.946 5.735 0 3.436-2.643 5.733-5.946 5.733-3.3 0-5.944-2.297-5.944-5.733 0-3.436 2.643-5.735 5.944-5.735zm0 9.012c2.006 0 3.212-1.57 3.212-3.277s-1.206-3.278-3.212-3.278c-2.003 0-3.21 1.57-3.21 3.278 0 1.706 1.207 3.276 3.21 3.276zM132.99 6.28h2.597v1.707h.046c.48-1.024 1.526-1.98 3.35-1.98 1.685 0 2.847.662 3.415 2.028.798-1.39 1.96-2.027 3.6-2.027 2.916 0 3.94 2.07 3.94 4.688v6.508h-2.732v-6.19c0-1.363-.41-2.548-2.027-2.548-1.71 0-2.347 1.412-2.347 2.822v5.917H140.1v-6.508c0-1.343-.548-2.23-1.868-2.23-1.8 0-2.507 1.32-2.507 2.777v5.96h-2.732V6.28z"/></g><path d="M42.214 24.404h.628l1.065 3.677h.02l1.227-3.676h.542L47 28.08h.02l1.035-3.676h.57l-1.292 4.39h-.59l-1.312-3.592h-.02l-1.226 3.592h-.59l-1.38-4.39zM49.538 21.61h.572v3.563h.02c.228-.484.788-.882 1.502-.882 1.37 0 1.674.93 1.674 1.89v2.614h-.572v-2.586c0-.71-.2-1.404-1.103-1.404-.846 0-1.52.59-1.52 1.795v2.194h-.573V21.61zM58.55 27.968c-.448.665-1.124.94-1.902.94-1.342 0-2.227-.96-2.227-2.318 0-1.312.914-2.3 2.2-2.3 1.35 0 2.06 1.036 2.06 2.054v.398h-3.69c0 .474.334 1.653 1.666 1.653.58 0 1.19-.305 1.474-.78l.42.353zm-.438-1.74c0-.777-.676-1.424-1.52-1.424-1.248 0-1.6 1.197-1.6 1.425h3.12zM59.825 25.64c0-.323-.048-1.007-.048-1.235h.57c.01.323.02.685.04.77.284-.515.74-.883 1.397-.883.113 0 .22.02.333.047l-.067.56c-.085-.03-.162-.037-.22-.037-.988 0-1.436.683-1.436 1.538v2.396h-.57V25.64zM66.63 27.968c-.446.665-1.12.94-1.9.94-1.34 0-2.225-.96-2.225-2.318 0-1.312.913-2.3 2.196-2.3 1.352 0 2.065 1.036 2.065 2.054v.398h-3.69c0 .474.333 1.653 1.665 1.653.58 0 1.19-.305 1.474-.78l.417.353zm-.437-1.74c0-.777-.674-1.424-1.52-1.424-1.246 0-1.598 1.197-1.598 1.425h3.118zM70.438 21.61h.57v3.563h.02c.227-.484.79-.882 1.502-.882 1.37 0 1.674.93 1.674 1.89v2.614h-.57v-2.586c0-.71-.2-1.404-1.104-1.404-.846 0-1.52.59-1.52 1.795v2.194h-.57V21.61zM77.63 24.29c1.352 0 2.312.97 2.312 2.31s-.96 2.308-2.312 2.308c-1.35 0-2.31-.97-2.31-2.31s.96-2.307 2.31-2.307zm0 4.106c1.075 0 1.74-.807 1.74-1.797 0-.988-.665-1.796-1.74-1.796s-1.74.808-1.74 1.795c0 .99.666 1.796 1.74 1.796zM81.067 25.64c0-.323-.048-1.007-.048-1.235h.568c.01.323.02.685.037.77h.03c.228-.485.79-.883 1.502-.883.58 0 1.114.284 1.32.95.277-.656.888-.95 1.496-.95 1.37 0 1.674.93 1.674 1.89v2.613h-.57V26.21c0-.712-.2-1.405-1.104-1.405-1.056 0-1.333.894-1.333 1.52v2.47h-.57v-2.64c0-.81-.294-1.35-.913-1.35-.846 0-1.52.59-1.52 1.795v2.195h-.57V25.64zM92.92 27.968c-.45.665-1.124.94-1.903.94-1.34 0-2.227-.96-2.227-2.318 0-1.312.913-2.3 2.198-2.3 1.35 0 2.063 1.036 2.063 2.054v.398h-3.69c0 .474.335 1.653 1.666 1.653.58 0 1.188-.305 1.473-.78l.42.353zm-.44-1.74c0-.777-.674-1.424-1.52-1.424-1.246 0-1.6 1.197-1.6 1.425h3.12zM96.724 21.61h.57v3.563h.02c.23-.484.79-.882 1.503-.882 1.37 0 1.674.93 1.674 1.89v2.614h-.57v-2.586c0-.71-.198-1.404-1.103-1.404-.847 0-1.52.59-1.52 1.795v2.194h-.572V21.61zM105.207 26.95c0 .856.02 1.34.085 1.844h-.532c-.037-.22-.057-.467-.057-.713h-.02c-.322.56-.8.827-1.54.827-.75 0-1.55-.37-1.55-1.3 0-1.34 1.568-1.475 2.434-1.475h.667v-.267c0-.76-.532-1.062-1.237-1.062-.513 0-.95.16-1.34.494l-.334-.39c.418-.398 1.104-.617 1.674-.617 1.066 0 1.75.474 1.75 1.585v1.076zm-1.142-.36c-.952 0-1.9.237-1.9.988 0 .54.522.817.997.817 1.218 0 1.532-.78 1.532-1.512v-.293h-.63zM106.522 24.404h.568v.77h.02c.354-.608 1.104-.883 1.76-.883 1.35 0 2.31.97 2.31 2.31s-.96 2.308-2.31 2.308c-.656 0-1.406-.274-1.76-.884h-.02v2.938h-.568v-6.558zm2.35 3.992c1.072 0 1.738-.807 1.738-1.797 0-.988-.666-1.796-1.74-1.796-1.036 0-1.835.808-1.835 1.795 0 .99.8 1.796 1.836 1.796zM112.27 24.404h.57v.77h.02c.353-.608 1.104-.883 1.76-.883 1.35 0 2.31.97 2.31 2.31s-.96 2.308-2.31 2.308c-.656 0-1.407-.274-1.76-.884h-.02v2.938h-.57v-6.558zm2.35 3.992c1.075 0 1.74-.807 1.74-1.797 0-.988-.665-1.796-1.74-1.796-1.035 0-1.836.808-1.836 1.795 0 .99.8 1.796 1.837 1.796zM121.96 27.968c-.448.665-1.123.94-1.902.94-1.342 0-2.227-.96-2.227-2.318 0-1.312.914-2.3 2.2-2.3 1.35 0 2.062 1.036 2.062 2.054v.398h-3.69c0 .474.334 1.653 1.665 1.653.58 0 1.188-.305 1.473-.78l.42.353zm-.44-1.74c0-.777-.674-1.424-1.52-1.424-1.246 0-1.598 1.197-1.598 1.425h3.12zM123.234 25.64c0-.323-.048-1.007-.048-1.235h.57c.01.323.02.685.038.77h.028c.228-.485.79-.883 1.503-.883 1.37 0 1.675.93 1.675 1.89v2.613h-.57V26.21c0-.712-.2-1.405-1.105-1.405-.846 0-1.52.59-1.52 1.795v2.195h-.57V25.64zM128.493 27.673c.24.466.762.723 1.274.723.496 0 1.01-.305 1.01-.807 0-1.21-2.607-.363-2.607-2.037 0-.854.78-1.262 1.504-1.262.713 0 1.266.268 1.55.828l-.513.303c-.22-.398-.523-.616-1.036-.616-.41 0-.932.246-.932.702 0 1.188 2.605.267 2.605 2.044 0 .902-.752 1.357-1.588 1.357-.752 0-1.43-.284-1.77-.894l.503-.34zM153.76 6.284c1.234 0 2.24 1.005 2.24 2.24s-1.006 2.236-2.24 2.236c-1.234 0-2.24-1.004-2.24-2.237s1.005-2.24 2.24-2.24zm0 4.152c1.06 0 1.915-.855 1.915-1.913 0-1.06-.856-1.915-1.916-1.915s-1.917.856-1.917 1.915c0 1.058.856 1.913 1.916 1.913zm-.49-.63h-.324V7.222h.992c.587 0 .814.252.814.716 0 .474-.3.673-.65.732l.77 1.133h-.367l-.77-1.133h-.465v1.133zm0-1.423h.416c.354 0 .742-.017.742-.444 0-.333-.303-.428-.58-.428h-.577v.87z"/></svg>